<svg xmlns="http://www.w3.org/2000/svg">
    <svg id="brush" viewBox="0 0 24 24" fill="none" xmlns="http://www.w3.org/2000/svg">
        <path d="M10.97 2H8.97C3.97 2 1.97 4 1.97 9V15C1.97 20 3.97 22 8.97 22H14.97C19.97 22 21.97 20 21.97 15V13" stroke="currentColor" stroke-width="1.5" stroke-linecap="round" stroke-linejoin="round"/>
        <path d="M21.88 3.55998C20.65 6.62998 17.56 10.81 14.98 12.88L13.4 14.14C13.2 14.29 13 14.41 12.77 14.5C12.77 14.35 12.76 14.2 12.74 14.04C12.65 13.37 12.35 12.74 11.81 12.21C11.26 11.66 10.6 11.35 9.92 11.26C9.76 11.25 9.6 11.24 9.44 11.25C9.53 11 9.66 10.77 9.83 10.58L11.09 8.99998C13.16 6.41998 17.35 3.30998 20.41 2.07998C20.88 1.89998 21.34 2.03998 21.63 2.32998C21.93 2.62998 22.07 3.08998 21.88 3.55998Z" stroke="currentColor" stroke-width="1.5" stroke-linecap="round" stroke-linejoin="round"/>
        <path d="M12.78 14.49C12.78 15.37 12.44 16.21 11.81 16.85C11.32 17.34 10.66 17.68 9.87 17.78L7.9 17.99C6.83 18.11 5.91 17.2 6.03 16.11L6.24 14.14C6.43 12.39 7.89 11.27 9.45 11.24C9.61 11.23 9.77 11.24 9.93 11.25C10.61 11.34 11.27 11.65 11.82 12.2C12.36 12.74 12.66 13.36 12.75 14.03C12.77 14.19 12.78 14.35 12.78 14.49Z" stroke="currentColor" stroke-width="1.5" stroke-linecap="round" stroke-linejoin="round"/>
        <path d="M15.82 11.9799C15.82 9.88994 14.13 8.18994 12.03 8.18994" stroke="currentColor" stroke-width="1.5" stroke-linecap="round" stroke-linejoin="round"/>
    </svg>
    <svg id="eraser" viewBox="0 0 24 24" fill="none" xmlns="http://www.w3.org/2000/svg">
        <path d="M7.67004 11.6064L8.20037 12.1367L7.67004 11.6064ZM6 13.9682H5.25H6ZM10.0318 18V18.75V18ZM11.6064 7.67004L11.076 7.13971L11.6064 7.67004ZM12.6506 16.073C12.9435 16.3659 13.4183 16.3659 13.7112 16.073C14.0041 15.7801 14.0041 15.3053 13.7112 15.0124L12.6506 16.073ZM8.98764 10.2888C8.69474 9.99588 8.21987 9.99588 7.92698 10.2888C7.63408 10.5817 7.63408 11.0565 7.92698 11.3494L8.98764 10.2888ZM15.7996 11.8633L11.8633 15.7996L12.924 16.8603L16.8603 12.924L15.7996 11.8633ZM8.20037 12.1367L12.1367 8.20037L11.076 7.13971L7.13971 11.076L8.20037 12.1367ZM8.20037 15.7996C7.6287 15.228 7.25442 14.8514 7.01378 14.536C6.78634 14.2379 6.75 14.0841 6.75 13.9682H5.25C5.25 14.544 5.492 15.0144 5.82124 15.4459C6.13728 15.8601 6.59802 16.3186 7.13971 16.8603L8.20037 15.7996ZM7.13971 11.076C6.59802 11.6177 6.13728 12.0762 5.82124 12.4904C5.492 12.922 5.25 13.3924 5.25 13.9682H6.75C6.75 13.8522 6.78634 13.6984 7.01378 13.4003C7.25442 13.0849 7.6287 12.7084 8.20037 12.1367L7.13971 11.076ZM11.8633 15.7996C11.2916 16.3713 10.9151 16.7456 10.5997 16.9862C10.3016 17.2137 10.1478 17.25 10.0318 17.25V18.75C10.6076 18.75 11.078 18.508 11.5096 18.1788C11.9238 17.8627 12.3823 17.402 12.924 16.8603L11.8633 15.7996ZM7.13971 16.8603C7.6814 17.402 8.13989 17.8627 8.55411 18.1788C8.98563 18.508 9.45604 18.75 10.0318 18.75V17.25C9.91588 17.25 9.76207 17.2137 9.46398 16.9862C9.14858 16.7456 8.77204 16.3713 8.20037 15.7996L7.13971 16.8603ZM15.7996 8.20037C16.3713 8.77204 16.7456 9.14858 16.9862 9.46398C17.2137 9.76207 17.25 9.91588 17.25 10.0318H18.75C18.75 9.45604 18.508 8.98563 18.1788 8.55411C17.8627 8.13989 17.402 7.6814 16.8603 7.13971L15.7996 8.20037ZM16.8603 12.924C17.402 12.3823 17.8627 11.9238 18.1788 11.5096C18.508 11.078 18.75 10.6076 18.75 10.0318H17.25C17.25 10.1478 17.2137 10.3016 16.9862 10.5997C16.7456 10.9151 16.3713 11.2916 15.7996 11.8633L16.8603 12.924ZM16.8603 7.13971C16.3186 6.59802 15.8601 6.13728 15.4459 5.82124C15.0144 5.492 14.544 5.25 13.9682 5.25V6.75C14.0841 6.75 14.2379 6.78634 14.536 7.01378C14.8514 7.25442 15.228 7.6287 15.7996 8.20037L16.8603 7.13971ZM12.1367 8.20037C12.7084 7.6287 13.0849 7.25442 13.4003 7.01378C13.6984 6.78634 13.8522 6.75 13.9682 6.75V5.25C13.3924 5.25 12.922 5.492 12.4904 5.82124C12.0762 6.13728 11.6177 6.59802 11.076 7.13971L12.1367 8.20037ZM13.7112 15.0124L8.98764 10.2888L7.92698 11.3494L12.6506 16.073L13.7112 15.0124Z" fill="currentColor"/>
        <path d="M22 12C22 16.714 22 19.0711 20.5355 20.5355C19.0711 22 16.714 22 12 22C7.28595 22 4.92893 22 3.46447 20.5355C2 19.0711 2 16.714 2 12C2 7.28595 2 4.92893 3.46447 3.46447C4.92893 2 7.28595 2 12 2C16.714 2 19.0711 2 20.5355 3.46447C21.5093 4.43821 21.8356 5.80655 21.9449 8" stroke="currentColor" stroke-width="1.5" stroke-linecap="round"/>
    </svg>
</svg>
